<?xml version="1.0" standalone="no"?>
<!DOCTYPE svg PUBLIC "-//W3C//DTD SVG 1.1//EN" "http://www.w3.org/Graphics/SVG/1.1/DTD/svg11.dtd" >
<!--
2013-9-30: Created.
-->
<svg>
<metadata>
Created by iconfont
</metadata>
<defs>

<font id="iconfont" horiz-adv-x="1024" >
  <font-face
    font-family="iconfont"
    font-weight="500"
    font-stretch="normal"
    units-per-em="1024"
    ascent="896"
    descent="-128"
  />
    <missing-glyph />
    
    <glyph glyph-name="heart-beat" unicode="&#59125;" d="M324.41435242 307.73249817c1.34596253-0.42640686 49.50398255-0.22988891 75.41098022-0.09269715a28.06869507 28.06869507 0 0 0 24.22361756-13.28164672l14.86862182-24.53137207a57.66133118 57.66133118 0 0 1 58.08773804-27.22329712 56.73065185 56.73065185 0 0 1 42.58135986 31.70613098l12.88861084 34.52783203a27.80914307 27.80914307 0 0 0 26.2407074 17.68290711h146.83227539l-192.26870728-199.03559876-38.08740234 1.17539978zM231.23518372 439.0806427a24.56103516 24.56103516 0 0 0-24.10125733 19.98179626A182.4835968 182.4835968 0 0 0 255.26599121 620.27760315a173.42152404 173.42152404 0 0 0 249.47026062 0L513.85394287 610.9226074200001l9.10656739 9.34757996a173.42523193 173.42523193 0 0 0 249.47767638 0A182.92854309 182.92854309 0 0 0 821.33036804 463.34875489a24.55732727 24.55732727 0 0 0-48.46577453 7.94229125 133.82130432 133.82130432 0 0 1-35.62165833 114.78872681 124.25125122 124.25125122 0 0 1-179.09088135 0l-16.85975646-17.30099487a38.06515503 38.06515503 0 0 0-27.4383545-11.60197449 38.01324463 38.01324463 0 0 0-27.43835449 11.60568237L469.53358459 586.07977295a124.24012756 124.24012756 0 0 1-179.06121826 0A133.45051575 133.45051575 0 0 1 255.41430664 468.13934326a24.57215881 24.57215881 0 0 0-24.17912292-29.05870056zM513.85394287 98.49279784999999a51.71388245 51.71388245 0 0 0-37.28279113 15.76963806l-182.40573121 186.96272278a24.53878784 24.53878784 0 0 0 35.19154358 34.20895386l182.42797852-186.96272278a2.78833008 2.78833008 0 0 1 4.17507934 0l186.50665284 191.17488098a24.53878784 24.53878784 0 0 0 35.18783569-34.20895385l-186.50665284-191.17488099A51.70646667 51.70646667 0 0 0 513.85394287 98.49279784999999z m-27.61262512 171.81600952a38.33583068 38.33583068 0 0 0-34.96907043 22.65147401l-35.12109375 77.35391235H188.01977539a24.51654052 24.51654052 0 1 0 0 49.03308105h235.07995606a38.56201172 38.56201172 0 0 0 34.99502563-22.64035035l25.78092956-56.77885436 41.62472534 147.64430237a38.37661743 38.37661743 0 0 0 72.02938844 0.51168823l0.84539794-2.22473145 11.22006226-64.84350586h230.08914185a24.51283264 24.51283264 0 1 0 0-49.02937317h-239.37368775a38.71032715 38.71032715 0 0 0-35.91828918 24.87620545l-0.84539796 2.22473144-4.56440734 26.40014649-36.60054016-129.80195618a38.37661743 38.37661743 0 0 0-34.67243958-25.34710693 32.49220276 32.49220276 0 0 0-1.46461487-0.02966309z m-63.13417053 100.00538636z"  horiz-adv-x="1024" />

    
    <glyph glyph-name="like-red" unicode="&#59484;" d="M512-5.746938999999998c-13.583673 0-26.122449 4.179592-37.093878 13.061225-8.881633 7.314286-225.697959 175.020408-312.424489 311.379592C133.746939 363.62449000000004 94.040816 424.75102 94.040816 511.477551c0 144.718367 108.146939 262.269388 240.326531 262.269388 67.395918 0 131.657143-30.82449 177.632653-84.636735 45.453061 54.334694 109.191837 84.636735 177.110204 84.636735 132.702041 0 240.326531-117.55102 240.326531-262.269388 0-85.159184-37.093878-143.673469-67.395919-191.216327l-1.044898-1.567346c-86.726531-136.359184-303.542857-304.587755-312.424489-311.379592-10.44898-8.359184-22.987755-13.061224-36.571429-13.061225z"  horiz-adv-x="1024" />

    
    <glyph glyph-name="add2" unicode="&#59075;" d="M896 352H128c-17.6 0-32 14.4-32 32s14.4 32 32 32h768c17.6 0 32-14.4 32-32s-14.4-32-32-32zM512-32c-17.6 0-32 14.4-32 32V768c0 17.6 14.4 32 32 32s32-14.4 32-32v-768c0-17.6-14.4-32-32-32z"  horiz-adv-x="1024" />

    
    <glyph glyph-name="geren" unicode="&#58887;" d="M746.6226381 169.51664412000002C738.56692522 264.84258007000005 673.44991263 343.7214355 585.17272549 372.25208536c36.92201745 23.83148398 61.42481083 65.11701258 61.42481083 112.44432585 0 74.17968958-60.41784673 134.26188162-134.59753632 134.26188161-74.5153443 0-134.59753632-60.08219202-134.59753632-134.26188161 0-47.32731327 24.5027934-88.61284188 61.42481084-112.44432586C350.55008737 343.7214355 285.43307478 264.84258007000005 277.3773619 169.51664412000002c0-1.67827352-0.3356547-3.02089233-1e-8-5.37047526C278.04867129 155.75480126000002 285.43307478 149.04170718 293.82444238 149.04170718c9.39833171 0 16.78273521 7.72005819 16.78273521 16.78273519 8.72702232 103.71730355 95.66159064 184.61008721 201.39282241 184.61008724s192.3301454-80.89278368 201.39282242-184.61008724c0-9.06267701 7.38440348-16.78273521 16.78273521-16.78273519 8.3913676 0 15.77577109 6.71309407 16.44708048 15.10446168 0.3356547 2.34958294 0 3.69220174 0 5.37047526zM410.96793409 484.69641121c0 55.71868087 45.31338504 100.69641121 101.03206591 100.69641121 55.71868087 0 101.03206591-44.97773033 101.03206591-100.69641121S567.71868087 384 512 384c-55.71868087 0-101.03206591 44.97773033-101.03206591 100.69641121z"  horiz-adv-x="1024" />

    
    <glyph glyph-name="delete" unicode="&#58990;" d="M791.45 595.5h-111.6v45a67.05 67.05 0 0 1-66.6 67.05h-225a67.05 67.05 0 0 1-66.6-67.5v-45H210.05a22.5 22.5 0 0 1 0-45h581.4a22.5 22.5 0 0 1 0 45.45z m-156.6 0h-270v45a22.95 22.95 0 0 0 22.5 22.5h225a21.6 21.6 0 0 0 21.6-22.5zM456.2 238.64999999999998V483.9a22.5 22.5 0 0 1-45 0v-245.25a22.5 22.5 0 0 1 45 0zM590.3 238.64999999999998V483.9a22.5 22.5 0 0 1-45 0v-245.25a22.5 22.5 0 0 1 45 0zM708.65 529.35a22.5 22.5 0 0 1-22.5-22.5v-335.25a90 90 0 0 0-90-90H405.35a90 90 0 0 0-90 90V506.85a22.5 22.5 0 0 1-45 0v-335.25a135 135 0 0 1 135-135h191.25a135 135 0 0 1 135 135V506.85a22.5 22.5 0 0 1-22.95 22.5z"  horiz-adv-x="1024" />

    
    <glyph glyph-name="is-playing" unicode="&#58897;" d="M734.4 707.2c-11.2 8-25.6 6.4-33.6-4.8s-6.4-25.6 4.8-33.6c86.4-65.6 134.4-166.4 134.4-273.6 0-108.8-49.6-208-136-273.6-11.2-8-12.8-22.4-4.8-33.6 4.8-6.4 19.2-9.6 19.2-9.6s9.6 1.6 14.4 4.8c97.6 75.2 155.2 188.8 155.2 312 0 123.2-56 236.8-153.6 312zM646.4 560c-11.2 8-25.6 6.4-33.6-4.8s-6.4-25.6 4.8-33.6c40-30.4 62.4-76.8 62.4-126.4 0-49.6-22.4-97.6-64-128-11.2-8-12.8-22.4-4.8-33.6 4.8-6.4 11.2-9.6 19.2-9.6 4.8 0 9.6 1.6 14.4 4.8 52.8 40 81.6 100.8 81.6 166.4 1.6 65.6-28.8 124.8-80 164.8zM472 707.2c-89.6-12.8-168-72-214.4-156.8H224c-48 0-88-40-88-88v-104c0-12.8 11.2-24 24-24s24 11.2 24 24v104c0 22.4 17.6 40 40 40h64l6.4 12.8c38.4 78.4 107.2 132.8 184 144 3.2 0 4.8-1.6 6.4-1.6 1.6-1.6 3.2-3.2 3.2-6.4V112c0-3.2-1.6-4.8-3.2-6.4-1.6-1.6-3.2-3.2-6.4-1.6-83.2 12.8-155.2 72-190.4 158.4l-6.4 14.4H224c-12.8 0-24-11.2-24-24s11.2-24 24-24h25.6c44.8-94.4 126.4-158.4 220.8-172.8h8c12.8 0 27.2 4.8 36.8 14.4 12.8 11.2 19.2 25.6 19.2 43.2V651.2c0 16-6.4 32-19.2 43.2-11.2 9.6-27.2 14.4-43.2 12.8z"  horiz-adv-x="1024" />

    
    <glyph glyph-name="good" unicode="&#58950;" d="M346.313 387.115c1.836 0 3.319-1.484 3.319-3.319v-319.434c0-1.835-1.483-3.318-3.319-3.318h-164.778c-1.836 0-3.319 1.483-3.319 3.318v319.434c0 1.836 1.483 3.318 3.319 3.318h164.778M346.313 420.486h-164.778c-20.228 0-36.689-16.462-36.689-36.69v-319.434c0-20.228 16.462-36.689 36.689-36.689h164.778c20.227 0 36.69 16.463 36.69 36.689v319.434c0 20.227-16.462 36.69-36.69 36.69v0zM662.874 707.495c3.078 0 5.784-0.556 7.49-1.001 9.196-8.325 47.387-46.664 30.794-95.849-21.08-62.572-52.856-101.633-53.839-102.876-7.916-11.087-17.317-35.818-2.392-58.213 5.933-8.918 15.684-12.014 23.843-12.014 1.149 0 2.28 0.056 3.355 0.186l105.489 0.037c2.818-0.222 69.245-6.173 68.133-60.364-0.519-25.399-15.369-36.911-15.814-37.264l-15.388-11.346 14.109-13.015c0.519-0.463 12.384-11.717 10.846-37.005-1.779-28.865-21.377-41.213-21.562-41.306l-22.507-9.381 18.057-16.038c1.521-1.706 8.899-10.66 7.472-25.547-1.223-12.699-5.876-38.599-19.412-48.945l-17.668-6.748 12.347-10.53c3.152-9.418 3.69-31.777-6.748-46.46-6.082-8.547-16.5-12.811-31.851-12.996-17.594-0.242-58.882-0.316-106.138-0.316-85.541 0-190.659 0.26-210.534 0.316-9.771 4.133-19.634 9.233-22.859 11.828-2.651 4.747-9.788 22.025-36.115 22.025-0.649 0-1.298-0.019-1.984-0.037v262.056c16.426 0.112 42.807 0.685 42.807 0.685l5.339 0.112 4.134 3.355c1.799 1.464 44.087 42.364 59.381 73.731 14.647 30.034 29.72 64.072 42.158 74.825 1.631 1.409 4.059 3.3 7.082 5.674 25.547 20.022 88.489 80.812 97.444 157.288 1.965 16.797 6.934 28.069 14.387 32.556 3.3 1.965 6.915 2.578 10.142 2.578M662.874 740.866c-9.881 0-19.337-2.54-27.309-7.342-16.87-10.197-27.049-29.459-30.312-57.268-6.953-59.438-56.619-112.757-84.874-134.911l-0.964-0.76c-3.097-2.428-5.618-4.431-7.361-5.951-14.758-12.755-26.401-35.689-43.809-71.933l-6.526-13.515c-9.195-18.855-34.354-46.312-46.626-58.621-8.88-0.166-24.323-0.464-35.281-0.537l-33.149-0.222v-329.649l34.428 1.093c0.055 0 0.093 0 0.148 0 4.172 0 5.358-0.612 5.358-0.612 0.242-0.26 0.89-1.502 1.372-2.428l1.038-1.909 3.172-5.655 5.061-4.059c8.584-6.897 25.696-14.387 30.738-16.519l6.192-2.633 6.729-0.019c19.875-0.055 125.048-0.315 210.607-0.315 55.006 0 90.863 0.112 106.583 0.315 32.871 0.428 50.019 14.943 58.621 27.05 14.72 20.708 16.574 46.756 13.868 64.778 16.815 19.151 22.006 47.481 23.602 64.035 1.446 15.166-1.909 27.346-6.138 36.226 11.068 11.402 23.119 30.312 24.769 57.195 1.372 22.525-4.487 38.841-10.567 49.408 7.898 10.4 16.407 27.011 16.89 50.593 1.205 59.214-50.371 90.398-98.797 94.31l-1.353 0.112-107.769-0.037c-2.54 7.324 1.947 15.146 3.04 16.908 7.508 9.566 37.839 50.52 58.529 111.978 18.094 53.691-8.825 103.005-40.045 131.241l-6.044 5.468-7.88 2.058c-5.266 1.428-10.642 2.132-15.944 2.132v0z"  horiz-adv-x="1024" />

    
    <glyph glyph-name="playlist" unicode="&#59193;" d="M173.62109375 665.25c-31.06582031 0-56.25 25.18417969-56.25 56.25 0 31.06582031 25.18417969 56.25 56.25 56.25 31.06582031 0 56.25-25.18417969 56.25-56.25 0-31.06582031-25.18417969-56.25-56.25-56.25z m0-337.5c-31.06582031 0-56.25 25.18417969-56.25 56.25 0 31.06582031 25.18417969 56.25 56.25 56.25 31.06582031 0 56.25-25.18417969 56.25-56.25 0-31.06582031-25.18417969-56.25-56.25-56.25z m0-337.5c-31.06582031 0-56.25 25.18417969-56.25 56.25 0 31.06582031 25.18417969 56.25 56.25 56.25 31.06582031 0 56.25-25.18417969 56.25-56.25 0-31.06582031-25.18417969-56.25-56.25-56.25zM315.125 756.65625h555.46875c19.41591797 0 35.15625-15.74033203 35.15625-35.15625s-15.74033203-35.15625-35.15625-35.15625H315.125c-19.41591797 0-35.15625 15.74033203-35.15625 35.15625s15.74033203 35.15625 35.15625 35.15625z m0-337.5h555.46875c19.41591797 0 35.15625-15.74033203 35.15625-35.15625s-15.74033203-35.15625-35.15625-35.15625H315.125c-19.41591797 0-35.15625 15.74033203-35.15625 35.15625s15.74033203 35.15625 35.15625 35.15625z m0-337.5h555.46875c19.41591797 0 35.15625-15.74033203 35.15625-35.15625s-15.74033203-35.15625-35.15625-35.15625H315.125c-19.41591797 0-35.15625 15.74033203-35.15625 35.15625s15.74033203 35.15625 35.15625 35.15625z"  horiz-adv-x="1024" />

    
    <glyph glyph-name="playstatus-pause-white" unicode="&#59591;" d="M512 820.90666667c59.00936989 0 116.18481038-11.54296605 170.01602617-34.30526408 51.99728754-22.00715037 98.70854371-53.50758173 138.83923001-93.63826801 40.13068629-40.13068629 71.63111765-86.84194247 93.63826801-138.83923001 22.87017643-53.93909419 34.41314247-111.11453469 34.41314248-170.12390457s-11.54296605-116.18481038-34.30526408-170.01602617c-22.00715037-51.99728754-53.50758173-98.70854371-93.63826801-138.83923001-40.13068629-40.13068629-86.84194247-71.63111765-138.83923001-93.63826801-53.93909419-22.87017643-111.11453469-34.41314247-170.12390457-34.41314248s-116.18481038 11.54296605-170.01602617 34.30526408c-51.99728754 22.00715037-98.70854371 53.50758173-138.83923001 93.63826801s-71.63111765 86.84194247-93.63826801 138.83923001c-22.87017643 53.93909419-34.41314247 111.11453469-34.41314248 170.12390457s11.54296605 116.18481038 34.30526408 170.01602617c22.00715037 51.99728754 53.50758173 98.70854371 93.63826801 138.83923001 40.13068629 40.13068629 86.84194247 71.63111765 138.83923001 93.63826801 53.93909419 22.87017643 111.11453469 34.41314247 170.12390457 34.41314248m0 48.54518556C243.92269938 869.45185223 26.54814777 652.07730062 26.54814777 384s217.37455161-485.45185223 485.45185223-485.45185223 485.45185223 217.37455161 485.45185223 485.45185223S780.07730062 869.45185223 512 869.45185223zM392.14733198 143.97102876999998c-13.37689543 0-24.27259221 10.89569678-24.27259335 24.27259221V599.7563790199999c0 13.37689543 10.89569678 24.27259221 24.27259335 24.27259221s24.27259221-10.89569678 24.27259221-24.27259221v-431.51275804c0-13.37689543-10.89569678-24.27259221-24.27259221-24.27259221zM631.85266802 143.97102876999998c-13.37689543 0-24.27259221 10.89569678-24.27259221 24.27259221V599.7563790199999c0 13.37689543 10.89569678 24.27259221 24.27259221 24.27259221s24.27259221-10.89569678 24.27259335-24.27259221v-431.51275804c0-13.37689543-10.89569678-24.27259221-24.27259335-24.27259221z"  horiz-adv-x="1024" />

    
    <glyph glyph-name="playstatus-play-white" unicode="&#59590;" d="M512-111.16088889000002c-273.21230222 0-495.16088889 221.94858667-495.16088889 495.16088889s221.94858667 495.16088889 495.16088889 495.16088889 495.16088889-221.94858667 495.16088889-495.16088889-221.94858667-495.16088889-495.16088889-495.16088889z m0 943.13585778c-246.99790222 0-447.97496889-200.97706667-447.97496889-447.97496889s200.97706667-447.97496889 447.97496889-447.97496889 447.97496889 200.97706667 447.97496889 447.97496889-200.97706667 447.97496889-447.97496889 447.97496889zM426.36629333 221.47072000000003c-6.40796445 0-12.81592889 1.74762667-18.64135111 5.24288-10.48576 6.40796445-16.89372445 17.47626667-16.89372444 30.29219555V511.57674667c0 12.23338667 6.40796445 23.30168889 16.89372444 30.29219555 10.48576 6.40796445 23.30168889 6.99050667 34.36999111 1.74762667l255.15349334-127.57674667c12.23338667-5.82542222 19.80643555-18.05880889 19.80643555-31.45728s-7.57304889-25.63185778-19.80643555-31.45728l-255.15349334-128.15928889c-5.24288-2.33016889-10.48576-3.49525333-15.72864-3.49525333z m11.65084445 270.88213333v-216.70570666l216.70570667 108.35285333-216.70570667 108.35285333z"  horiz-adv-x="1024" />

    
    <glyph glyph-name="prev-song" unicode="&#59274;" d="M785.36 737.8199999999999c-17.04 9.42-37.44 9.48-54.48 0L212 448.68l0 265.2c0 16.56-13.44 30-30 30S152 730.44 152 713.88l0-323.34C151.76 388.5 151.16 386.58 151.16 384.48S151.76 380.4 152 378.36l0-324.48c0-16.56 13.44-30 30-30s30 13.44 30 30L212 320.28l518.82-289.08C739.4 26.399999999999977 748.7 24 758.12 24s18.72 2.4 27.24 7.14c17.04 9.48 27.18 26.46 27.18 45.54L812.54 692.34C812.54 711.3 802.4 728.28 785.36 737.8199999999999zM752.18 86.58000000000004L217.64 384.48 755.12 684 752.18 86.58000000000004z"  horiz-adv-x="1024" />

    
    <glyph glyph-name="next-song" unicode="&#59301;" d="M812 713.88c0 16.56-13.44 30-30 30S752 730.44 752 713.88l0-265.2L233.18 737.8199999999999c-17.04 9.48-37.44 9.42-54.48 0C161.6 728.28 151.46 711.3 151.46 692.28l0-615.6c0-18.96 10.14-36.06 27.24-45.54C187.22 26.399999999999977 196.52 24 205.88 24s18.72 2.4 27.24 7.14L752 320.28l0-266.34c0-16.56 13.44-30 30-30s30 13.44 30 30L812 713.88zM211.82 86.58000000000004L208.88 684l537.48-299.52L211.82 86.58000000000004z"  horiz-adv-x="1024" />

    
    <glyph glyph-name="random-play" unicode="&#58987;" d="M824 240c-6 6-15 12-24 9-18 0-33-15-33-33 0-9 6-18 12-24l39-39c-42 6-81 21-114 48-3 0-3 3-6 6L344 579C284 645 212 681 125 681c-18 0-33-15-33-33s15-30 33-30c69 0 126-30 171-81l360-375 6-6c45-36 102-60 162-66l-45-42c-9-6-15-18-15-27 0-18 18-33 36-30 9 0 18 6 24 12l93 87c15 15 15 39 0 54l-93 96z m-3 522c-12 15-30 18-45 6-9-6-12-15-12-24 0-12 3-21 15-27l39-39c-69-9-132-36-180-84l-108-111c-12-12-12-30 0-42 6-6 15-9 24-9s18 3 24 9l105 111c39 36 87 60 138 66l-42-42c-6-6-12-15-12-24 0-18 15-33 30-33 9 0 18 3 27 9L923 624c12 12 12 33 0 45l-102 93m-411-420c-9 0-18-3-24-9l-111-114c-45-42-90-63-150-63H122c-18 0-33-15-33-33s15-30 33-30h3c78 0 138 30 198 81l114 117c6 6 9 12 9 21 0 9-3 15-9 21-9 6-18 9-27 9z"  horiz-adv-x="1024" />

    
    <glyph glyph-name="playlist-circulation" unicode="&#58988;" d="M683 63H215l45-42c9-6 15-15 15-27-3-18-18-30-36-30-9 0-21 6-27 12l-102 90c-12 12-15 33 0 45L212 204c6 6 18 9 27 9 18 0 33-15 33-33 0-9-6-18-12-24l-39-36h465c105 0 186 84 186 186v81c0 18 12 30 30 30s30-12 30-30v-81c0-132-111-243-249-243zM341 705h465l-45 42c-9 6-15 15-15 27 3 18 18 30 36 30 9 0 21-6 27-12l102-90c12-12 15-33 0-45L812 564c-6-6-18-9-27-9-18 0-33 15-33 33 0 9 6 18 12 24l39 36H338C236 645 152 561 152 456v-84c0-18-12-30-30-30s-30 12-30 30v81C92 594 203 705 341 705z"  horiz-adv-x="1024" />

    
    <glyph glyph-name="single-circulation" unicode="&#58989;" d="M902 417c-18 0-30-12-30-30v-81c0-102-81-186-186-186H221l39 36c6 6 12 15 12 24 0 18-15 33-33 33-9 0-21-3-27-9l-102-93c-15-12-12-33 0-45l102-90c6-6 18-12 27-12 18 0 33 12 36 30 0 12-6 21-15 27l-45 42h468c138 0 249 111 249 243v81c0 18-12 30-30 30zM122 342c18 0 30 12 30 30v84c0 105 84 189 186 192h465l-39-36c-6-6-12-15-12-24 0-18 15-33 33-33 9 0 21 3 27 9l99 93c15 12 12 33 0 45l-102 90c-6 6-18 12-27 12-18 0-33-12-36-30 0-12 6-21 15-27l45-42H341C203 705 92 594 92 453v-81c0-18 12-30 30-30zM542 234V534h-45L422 480l15-39 57 39V234z"  horiz-adv-x="1024" />

    
    <glyph glyph-name="playstatus-play-red" unicode="&#58949;" d="M512-51.200000000000045c-240.128 0-435.2 195.072-435.2 435.2s195.072 435.2 435.2 435.2 435.2-195.072 435.2-435.2-195.072-435.2-435.2-435.2z m0 828.928c-217.088 0-393.728-176.64-393.728-393.728s176.64-393.728 393.728-393.728 393.728 176.64 393.728 393.728-176.64 393.728-393.728 393.728zM436.736 241.15200000000004c-5.632 0-11.264 1.536-16.384 4.608-9.216 5.632-14.848 15.36-14.848 26.624V496.128c0 10.752 5.632 20.48 14.848 26.624 9.216 5.632 20.48 6.144 30.208 1.536l224.256-112.128c10.752-5.12 17.408-15.872 17.408-27.648s-6.656-22.528-17.408-27.648l-224.256-112.64c-4.608-2.048-9.216-3.072-13.824-3.072z m10.24 238.08v-190.464l190.464 95.232-190.464 95.232z"  horiz-adv-x="1024" />

    
    <glyph glyph-name="microphone" unicode="&#58894;" d="M714.88 302.50666666999996c-43.73333333-64.74666667-112.74666667-108.90666667-190.08-121.70666667L665.17333333 41.60000000000002c25.06666667-24.85333333 64.21333333-28.8 93.76-9.28 29.54666667 19.52 41.28 57.17333333 28.16 90.02666667l-72.21333333 180.16zM805.65333333 129.70666667l-68.26666666 170.34666666c19.09333333 30.61333333 32.85333333 64.74666667 40.21333333 101.12 16.32 80 0.42666667 161.6-44.58666667 229.65333334-45.01333333 68.16-113.92 114.66666667-193.92 130.98666666-80 16.32-161.6 0.53333333-229.65333333-44.58666666-68.05333333-45.01333333-114.56-113.92-130.88-193.92-33.6-165.12 73.28-326.82666667 238.50666667-360.53333334 20.58666667-4.16 41.17333333-6.29333333 61.65333333-6.29333333 13.22666667 0 26.45333333 0.85333333 39.46666667 2.56l132.90666666-131.84c18.13333333-18.02666667 42.45333333-27.30666667 66.77333334-27.30666667 18.02666667 0 36.26666667 5.12 52.05333333 15.57333334 37.44 24.74666667 52.37333333 72.74666667 35.73333333 114.24zM217.81333333 515.30666667c14.18666667 69.54666667 54.61333333 129.38666667 113.70666667 168.53333333 43.94666667 29.12 94.4 44.16 146.02666667 44.16 17.81333333 0 35.73333333-1.81333333 53.65333333-5.44 69.54666667-14.18666667 129.38666667-54.61333333 168.53333333-113.81333333 23.14666667-34.98666667 37.44-74.02666667 42.24-114.45333334-3.2-0.32-6.29333333-1.28-9.17333333-3.2L343.68 236.37333333000004c-0.85333333-0.53333333-1.6-1.17333333-2.34666667-1.81333333-93.65333333 56.32-146.56 167.68-123.52 280.74666667z m207.25333334-313.38666667c-14.61333333 2.98666667-28.58666667 7.14666667-42.02666667 12.26666667l360.53333333 236.16c-0.64-13.65333333-2.34666667-27.41333333-5.12-41.17333334-6.93333333-34.02666667-20.16-65.70666667-38.72-93.76-0.53333333-0.53333333-0.96-1.17333333-1.38666666-1.81333333-40.53333333-60.05333333-104.96-101.33333333-176.74666667-113.17333333-1.17333333-0.21333333-2.34666667-0.53333333-3.41333333-0.85333334-30.61333333-4.69333333-61.97333333-3.94666667-93.12 2.34666667z m322.88-152.96c-21.44-14.18666667-50.34666667-11.30666667-68.69333334 6.82666667L565.01333333 169.06666667000002c28.58666667 8.53333333 56.10666667 21.33333333 81.81333334 38.29333333 23.57333333 15.57333333 44.58666667 34.13333333 62.72 54.93333333l59.09333333-147.41333333c9.49333333-24 0.85333333-51.73333333-20.69333333-65.92z"  horiz-adv-x="1024" />

    
    <glyph glyph-name="like" unicode="&#58939;" d="M511-48.299999999999955c-7 0-13.7 2-19.5 5.9-85.4 57.2-145.4 100-194.5 138.8-56.7 44.8-98.4 83.9-131 123.1-34.7 41.6-59.3 83.7-75.2 128.8-15.5 44-23.2 92.6-23.7 148.5v0.3c0 47 13.6 92.5 39.4 131.8 26 39.6 62.3 69.8 105.2 87.4 27.5 11.3 56.9 17 87.3 17 22.4 0 45.1-3.1 67.7-9.3 48.3-13.2 95.7-40 141.1-79.6l3.3-2.9 3.3 2.8c45.9 39.7 93.7 66.5 142 79.7 22.5 6.1 45.3 9.2 67.5 9.2 30.6 0 60-5.8 87.5-17.2 42.6-17.7 78.7-47.9 104.4-87.5 25.4-39.1 38.9-84.6 38.9-131.4v-0.2c0.5-55.9-6.6-104.4-21.6-148.5-15.4-45.3-39.8-87.6-74.6-129.2-32.7-39.3-74.6-78.4-131.8-123.2-49.7-38.9-110.3-81.7-196.6-138.6-5.6-3.7-12.2-5.7-19.1-5.7zM299.1 663.4c-21.3 0-41.8-4-60.8-11.8-60.5-24.9-101.1-86.9-101.2-154.4 0.8-96.1 24.7-163.6 82.6-232.9 65.1-78 177.2-158.4 288.6-233.7l2.8-1.9 2.8 1.9c190.4 126.9 252.3 187.2 291 233.5 57.6 69.1 80.8 136.5 79.9 232.6v0.3c0 67.5-40.3 129.6-100.2 154.5-18.9 7.8-39.3 11.8-60.7 11.8-16.1 0-32.6-2.3-49.1-6.8-46.6-12.7-93.4-42.2-139.1-87.9-6.6-6.6-15.4-10.2-24.7-10.2h-0.1c-9.2 0-18.3 3.8-24.8 10.4-45.1 45.5-91.4 75-137.8 87.7-16.5 4.6-33 6.9-49.2 6.9z"  horiz-adv-x="1024" />

    
    <glyph glyph-name="playstatus-pause-red" unicode="&#58901;" d="M512 793.6c55.32128427 0 108.92325973-10.82153067 159.39002453-32.16118507 48.74745707-20.63170347 92.53925973-50.16335787 130.16177814-87.78587626 37.6225184-37.6225184 67.1541728-81.41432107 87.78587626-130.16177814 21.4407904-50.5679008 32.26232107-104.16987627 32.26232107-159.49116053s-10.82153067-108.92325973-32.16118507-159.39002453c-20.63170347-48.74745707-50.16335787-92.53925973-87.78587626-130.16177814-37.6225184-37.6225184-81.41432107-67.1541728-130.16177814-87.78587626-50.5679008-21.4407904-104.16987627-32.26232107-159.49116053-32.26232107s-108.92325973 10.82153067-159.39002453 32.16118507c-48.74745707 20.63170347-92.53925973 50.16335787-130.16177814 87.78587626s-67.1541728 81.41432107-87.78587626 130.16177814c-21.4407904 50.5679008-32.26232107 104.16987627-32.26232107 159.49116053s10.82153067 108.92325973 32.16118507 159.39002453c20.63170347 48.74745707 50.16335787 92.53925973 87.78587626 130.16177814 37.6225184 37.6225184 81.41432107 67.1541728 130.16177814 87.78587626 50.5679008 21.4407904 104.16987627 32.26232107 159.49116053 32.26232107m0 45.51111147C260.67753067 839.11111147 56.88888853 635.32246933 56.88888853 384s203.78864213-455.11111147 455.11111147-455.11111147 455.11111147 203.78864213 455.11111147 455.11111147S763.32246933 839.11111147 512 839.11111147zM399.63812373 158.97283947000005c-12.54083947 0-22.7555552 10.21471573-22.75555626 22.7555552V586.27160533c0 12.54083947 10.21471573 22.7555552 22.75555626 22.7555552s22.7555552-10.21471573 22.7555552-22.7555552v-404.54321066c0-12.54083947-10.21471573-22.7555552-22.7555552-22.7555552zM624.36187627 158.97283947000005c-12.54083947 0-22.7555552 10.21471573-22.7555552 22.7555552V586.27160533c0 12.54083947 10.21471573 22.7555552 22.7555552 22.7555552s22.7555552-10.21471573 22.75555626-22.7555552v-404.54321066c0-12.54083947-10.21471573-22.7555552-22.75555626-22.7555552z"  horiz-adv-x="1024" />

    
    <glyph glyph-name="add-next" unicode="&#58952;" d="M98 384A414 414 0 1 1 512 798 414 414 0 0 1 98 384z m36 0a378 378 0 1 0 378-378A378 378 0 0 0 134 384zM584 492h36v-288h-36zM584 564h36v-36h-36zM350 564v-360l252 180z m36-288V492l162-108z"  horiz-adv-x="1024" />

    
    <glyph glyph-name="add" unicode="&#58911;" d="M884.3890625 377.2584375c-1.48078125-196.37015625-158.59546875-359.48390625-355.168125-366.85828125-195.93140625-7.35328125-365.07796875 148.82484375-378.219375 343.220625C137.796875 548.9278125000001 287.7903125 723.778125 482.00046875 742.76671875c194.50125 19.01390625 374.76421875-124.76953125 399.5746875-318.5578125 1.99125-15.55875 2.68734375-31.2525 2.81390625-46.95046875 0.19828125-27.18984375 42.39421875-27.20671875 42.1875 0-1.45125 192.94453125-138.60703125 362.4075-328.20609375 401.203125C408.96125 817.215 213.18171875 712.13859375 139.36203125 533.98921875 64.5509375 353.43515625 131.181875 144.29062499999998 291.9753125 35.65781249999998c161.32078125-108.9871875 383.484375-80.8903125 518.61515625 56.16421875 74.60015625 75.67171875 115.18875 179.6934375 115.981875 285.43640625 0.19828125 27.2446875-41.98921875 27.2278125-42.18328125 0zM287.4021875 356.18156250000004h459.86484375c27.2025 0 27.2025 42.21703125 0 42.21703125H287.4021875c-27.20671875 0-27.20671875-42.21703125 0-42.21703125zM538.4515625 147.35343750000004V607.2225000000001c0 27.20671875-42.2128125 27.20671875-42.2128125 0v-459.8690625c-0.00421875-27.2025 42.2128125-27.2025 42.2128125 0z"  horiz-adv-x="1024" />

    
    <glyph glyph-name="album" unicode="&#58955;" d="M510.51252875-34.286002499999995c-231.34522781 0-419.54754656 188.21479031-419.54754656 419.55426188 0 231.33275625 188.20231875 419.535075 419.54754656 419.535075 231.33275625 0 419.54754656-188.20231875 419.54754656-419.53507501C930.06007531 153.92974780999998 741.845285-34.286002499999995 510.51252875-34.286002499999995zM510.51252875 752.79699563c-202.66355437 0-367.54216688-164.8786125-367.54216688-367.52969532 0-202.67026969 164.8776525-367.54888219 367.54216688-367.54888219 202.66451344 0 367.54120688 164.8776525 367.54120688 367.54888219C878.05373563 587.9183831299999 713.17704219 752.79699563 510.51252875 752.79699563zM510.51252875 287.50382436999996c-53.90968969 0-97.76443594 43.85474625-97.76443594 97.76443594 0 53.90968969 43.85378719 97.76443594 97.76443594 97.76443594s97.76347594-43.85378719 97.76347594-97.76443594C608.27600469 331.35857062 564.4222175 287.50382436999996 510.51252875 287.50382436999996zM510.51252875 431.02635656c-25.24144594 0-45.75905531-20.53008094-45.75905531-45.75905531s20.51760937-45.75905531 45.75905531-45.75905531c25.22801531 0 45.75809625 20.53008094 45.75809625 45.75905531S535.74054406 431.02635656 510.51252875 431.02635656zM206.86016469 355.48141594000003c-6.90635719 0-12.64614562 6.64061812-12.9752025 13.61125125-0.22832531 4.95120281-0.3424875 10.55092688-0.3424875 15.56640562 0 7.18648781 5.81557687 13.30617844 13.00110562 13.30617844 7.17401625 0 13.00110563-5.66304 13.00110563-12.84952781 0-4.60871531 0.10169062-10.33507312 0.31754437-14.88047063 0.33001594-7.18552781-5.20543031-14.75287781-12.3784875-14.75287781C207.26597 355.48141594000003 207.06258781 355.48141594000003 206.86016469 355.48141594000003zM360.80698906 107.63729437999996c-2.17100813 0-4.36791844 0.53435813-6.39886125 1.67598374-83.15066344 47.18081156-140.10724688 128.02615781-156.27036844 221.81600907-1.21933312 7.08575625 3.5294475 13.80216187 10.60177219 15.02053593 7.14811313 1.23084562 13.80120281-3.53040656 15.01957688-10.60273125 14.82962531-86.0949075 67.12760719-160.287165 143.47264593-203.60755406 6.24632531-3.53136562 8.44323562-11.47765781 4.9003575-17.72494218C369.7318175 110.00017218999994 365.33895594 107.63729437999996 360.80698906 107.63729437999996zM342.14284344 213.98311124999998c-3.36443906 0-6.72887812 1.29704062-9.26827594 3.88632469-38.58503906 39.26425875-59.82599812 91.18041937-59.82599812 146.22022312 0 7.18648781 5.81557687 13.00110563 13.00110562 13.00110563 7.17305625 0 13.00110563-5.81461781 13.00110563-13.00110563 0-48.16990125 18.59986969-93.62388281 52.37377031-127.98778406 5.02795125-5.12964187 4.95120281-13.35702375-0.16500844-18.38401594C348.73261531 215.22834750000004 345.43053406 213.98311124999998 342.14284344 213.98311124999998zM385.31165469 180.79537312000002c-2.17100813 0-4.38039 0.55834125-6.39886125 1.69996782-4.20291 2.38686188-8.31660094 4.90131656-12.34107281 7.59325219-5.96715469 3.96115406-7.59229219 12.036-3.6177075 18.00315375 3.98609719 5.99305687 12.036 7.6440975 18.02905593 3.63209718 3.50450438-2.33697563 7.09726781-4.52045531 10.76677969-6.62814656 6.24728438-3.5294475 8.43076406-11.47861781 4.888845-17.72494219C394.23648406 183.15537281000002 389.84362156 180.79537312000002 385.31165469 180.79537312000002zM402.84568625 256.63867125c-2.17100813 0-4.38039 0.54491062-6.39886125 1.68941438-32.79536437 18.59986969-53.16043687 53.54129906-53.16043687 91.19864718 0 7.18552781 5.81557687 13.00110563 13.00110562 13.00110563 7.17401625 0 13.00110563-5.81557687 13.00110563-13.00110563 0-28.31424281 15.31217812-54.59562375 39.98185218-68.57430656 6.24632531-3.54191812 8.43076406-11.47861781 4.88788594-17.72494219C411.77051563 258.99963 407.3651825 256.63867125 402.84568625 256.63867125zM807.20768937 350.4275625c-0.50749594 0-1.0284225 0.02686219-1.53687843 0.09017906-7.1356425 0.83751188-12.23938125 7.30065-11.40186938 14.4353325 12.25281281 104.02419187-32.50276313 207.08231813-116.78354062 268.97859282-5.78967469 4.24032469-7.03299188 12.37944656-2.79266625 18.16912125 4.24128469 5.77624406 12.39191813 7.03395094 18.18063375 2.78019468 91.81071187-67.40677781 140.56581656-179.66986406 127.22126437-292.9757625C819.32043687 355.29050530999996 813.70728219 350.4275625 807.20768937 350.4275625zM733.70616312 373.96808156c-0.50749594 0-1.01595094 0.02398406-1.53591843 0.08826-7.1356425 0.83847187-12.22690969 7.30065-11.38939782 14.4362925 7.69494281 65.28565594-20.39193469 129.97459688-73.2847125 168.81386438-5.78967469 4.24032469-7.03491 12.37944656-2.79362625 18.16816218 4.24032469 5.77720312 12.3784875 7.03395094 18.18159282 2.78019469 60.43614469-44.36224219 92.50815938-118.24367062 83.72147718-192.81103406C745.81891063 378.83102438000003 740.207675 373.96808156 733.70616312 373.96808156zM662.21159656 404.73250313c-0.50749594 0-1.01595094 0.02494313-1.53687843 0.08825999-7.1346825 0.83847187-12.22595063 7.30065-11.38843875 14.43629251 3.31359375 28.16074687-8.79819469 56.05575375-31.614405 72.81463125-5.78967469 4.24032469-7.03395094 12.37944656-2.79266625 18.16912124 4.25279625 5.77624406 12.39191813 7.02147938 18.18063375 2.78019469 30.34518562-22.28281219 46.45650281-59.3693475 42.05116968-96.81180187C674.32434406 409.59544594 668.71214937 404.73250313 662.21159656 404.73250313z"  horiz-adv-x="1024" />

    
    <glyph glyph-name="singer" unicode="&#58903;" d="M812.09375 110.18437500000005c-17.8125 39.91875-46.303125 72.496875-84.675 96.825a18.75 18.75 0 1 1-20.08125-31.66875c32.034375-20.315625 55.753125-47.371875 70.509375-80.4375A46.875 46.875 0 0 0 735.125 28.828125H292.334375A46.875 46.875 0 0 0 249.5 94.65937499999995c15.61875 34.959375 41.19375 63.178125 76.0125 83.86875 46.875 27.84375 110.221875 41.953125 188.4375 41.953125a273.6 273.6 0 0 1 107.8125 21.99375 281.315625 281.315625 0 0 1 148.03125 148.03125 275.053125 275.053125 0 0 1 0 215.56875 281.315625 281.315625 0 0 1-148.18125 148.021875A277.575 277.575 0 0 1 236.05625 498.28125c0-50.49375 12.421875-82.565625 12.965625-83.934375 6.61875-16.725 13.865625-27.684375 19.6875-36.496875 6.628125-10.040625 11.015625-16.66875 12.91875-28.9125 1.05-6.815625 5.325-41.4375-14.4-54.46875-13.95-9.215625-36.346875-6.365625-54.459375 6.9375a18.75 18.75 0 0 1-22.2-30.234375c31.0125-22.753125 70.125-25.96875 97.33125-7.9875 17.41875 11.503125 28.284375 30.58125 31.434375 55.190625a131.371875 131.371875 0 0 1-0.65625 36.309375c-3.15 20.34375-11.053125 32.2875-18.69375 43.846875-5.371875 8.128125-10.921875 16.528125-16.10625 29.60625-0.103125 0.2625-10.3125 27.39375-10.3125 70.14375A240.3 240.3 0 0 0 513.875 738.590625c63.75 0 123.91875-25.125 169.5375-70.734375s70.74375-105.84375 70.74375-169.575-25.125-123.9375-70.74375-169.59375S577.625 257.98125000000005 513.875 257.98125000000005c-192.1875 0-268.4625-80.49375-298.640625-148.021875a84.375 84.375 0 0 1 77.11875-118.63125H735.125a84.375 84.375 0 0 1 76.96875 118.85625zM440.028125 445.2375V539.49375a18.75 18.75 0 0 1-37.5 0v-94.25625a18.75 18.75 0 1 1 37.5 0zM624.8 445.2375V539.49375a18.75 18.75 0 0 1-37.5 0v-94.25625a18.75 18.75 0 0 1 37.5 0z"  horiz-adv-x="1024" />

    
    <glyph glyph-name="more-gray" unicode="&#59589;" d="M440 784m72 0l0 0q72 0 72-72l0 0q0-72-72-72l0 0q-72 0-72 72l0 0q0 72 72 72ZM440 456m72 0l0 0q72 0 72-72l0 0q0-72-72-72l0 0q-72 0-72 72l0 0q0 72 72 72ZM440 128m72 0l0 0q72 0 72-72l0 0q0-72-72-72l0 0q-72 0-72 72l0 0q0 72 72 72Z"  horiz-adv-x="1024" />

    
    <glyph glyph-name="more-white" unicode="&#58967;" d="M440 784m72 0l0 0q72 0 72-72l0 0q0-72-72-72l0 0q-72 0-72 72l0 0q0 72 72 72ZM440 456m72 0l0 0q72 0 72-72l0 0q0-72-72-72l0 0q-72 0-72 72l0 0q0 72 72 72ZM440 128m72 0l0 0q72 0 72-72l0 0q0-72-72-72l0 0q-72 0-72 72l0 0q0 72 72 72Z"  horiz-adv-x="1024" />

    
    <glyph glyph-name="video" unicode="&#58937;" d="M445.528 221.38400000000001c-6.971 0-13.983 1.603-20.523 4.855-15.724 7.821-25.491 23.59-25.491 41.151V500.609c0 17.562 9.768 33.33 25.492 41.152 15.232 7.577 33.04 6.197 46.871-3.527L658.24 421.453l1.051-0.795c11.589-8.766 18.235-22.127 18.235-36.658 0-14.53-6.647-27.892-18.236-36.656l-1.051-0.795-186.363-116.783c-7.893-5.55-17.083-8.382-26.348-8.382z m13.986 253.79v-182.348L605.012 384l-145.498 91.174zM803.6 22.498000000000047H220.4c-65.286 0-118.4 53.114-118.4 118.4V627.102c0 65.286 53.114 118.4 118.4 118.4h583.2c65.286 0 118.4-53.114 118.4-118.4v-486.203c0-65.287-53.114-118.401-118.4-118.401zM220.4 685.502c-32.202 0-58.4-26.198-58.4-58.4v-486.203c0-32.202 26.198-58.4 58.4-58.4h583.2c32.202 0 58.4 26.198 58.4 58.4V627.102c0 32.202-26.198 58.4-58.4 58.4H220.4z"  horiz-adv-x="1024" />

    
    <glyph glyph-name="download" unicode="&#59034;" d="M490.155 199.16499999999996c5.703-5.703 13.229-8.617 20.753-8.496 7.524 0 15.05 2.791 20.875 8.496l179.739 179.739c11.408 11.408 11.408 29.855 0 41.142-5.703 5.703-13.107 8.496-20.631 8.496s-14.928-2.791-20.631-8.496l-130.222-130.222v483.389c0 16.142-12.986 29.127-29.127 29.127s-29.127-12.986-29.127-29.127v-483.267l-130.222 130.222c-5.703 5.703-13.107 8.496-20.631 8.496s-14.928-2.791-20.631-8.496c-11.408-11.408-11.408-29.855 0-41.142l179.86-179.86zM883.007 398.806c-16.142 0-29.127-12.986-29.127-29.127 0-189.084-153.767-342.85-342.85-342.85s-342.85 153.767-342.85 342.85c0 16.142-12.986 29.127-29.127 29.127s-29.127-12.986-29.127-29.127c0-54.128 10.559-106.678 31.554-156.194 20.146-47.818 49.152-90.658 85.925-127.553 36.773-36.773 79.735-65.778 127.553-85.925 49.516-20.875 102.066-31.554 156.194-31.554 54.128 0 106.678 10.559 156.194 31.554 47.818 20.146 90.658 49.152 127.553 85.925 36.773 36.773 65.778 79.735 85.925 127.553 20.875 49.516 31.554 102.066 31.554 156.194-0.242 16.02-13.349 29.127-29.37 29.127z"  horiz-adv-x="1024" />

    
    <glyph glyph-name="select" unicode="&#58926;" d="M218.47269380045435 102.30847209876538c-9.468623156464195-9.468623156464195-9.468623156464195-23.67155659662222 0-33.14017975308642 82.85044938271605-78.11613780448396 189.37245536205432-123.09209585588148 302.9959293560098-123.09209585588148 241.4498814280691 0 437.92380351020245 196.47392337667162 437.92380351020245 437.92380351020245S762.9185032899951 821.9238035102024 521.4686231564642 821.9238035102024 83.54481835172345 625.449881428069 83.54481835172345 384c0-82.85044938271605 23.67155659662222-165.7008987654321 68.647515942558-236.71556984983704 7.101466720079011-11.83577829831111 21.304401454775306-14.202934734696296 33.14017975308642-7.101466720079011 11.83577829831111 7.101466720079011 14.202934734696296 21.304401454775306 7.101466720079011 33.14017975308642-40.24164647316543 61.54604792794074-61.54604792794074 134.92787415419258-61.54604792794074 210.6768568168296 0 215.41116839506174 175.16952192189632 390.580690316958 390.580690316958 390.580690316958S912.0493121788841 599.4111683950617 912.0493121788841 384s-175.16952192189632-390.580690316958-390.58068902241973-390.580690316958c-101.78769440110615 0-196.47392337667162 37.87449133131852-269.8557496029234 108.88916241572346-9.468623156464195 9.468623156464195-26.038713033007408 9.468623156464195-33.14017975308642 0zM481.22697538876054 218.29910123456796c7.101466720079011 0 11.83577829831111 2.3671551418469137 16.57008987654321 7.101466720079011l248.55134814814815 248.55134814814815c9.468623156464195 9.468623156464195 9.468623156464195 23.67155659662222 0 33.14017975308642s-23.67155659662222 9.468623156464195-33.14017975308642 0l-231.98125827160493-231.98125827160493-153.8651191725827 153.865120467121c-9.468623156464195 9.468623156464195-23.67155659662222 9.468623156464195-33.14017975308642 0s-9.468623156464195-23.67155659662222 0-33.14017975308642l170.43520904912594-170.43521034366415c4.734311578232098-4.734311578232098 11.83577829831111-7.101466720079011 16.57008987654321-7.101466720079011z"  horiz-adv-x="1024" />

    
    <glyph glyph-name="comment" unicode="&#59091;" d="M512 77.39733333000004c-25.73425778 0-51.50037333 2.34040889-76.09116445 7.02350222l-179.02933333-108.8512v180.224c-93.64138667 65.55079111-153.2928 166.17813333-153.2928 278.52913778 0 197.77308445 182.53141333 358.10872889 408.41216 358.10872889 225.84547555 0 408.41102222-160.33564445 408.41102223-358.10872889S737.84433778 77.39733333000004 512 77.39733333000004z m0 663.53152c-197.79015111 0-358.12352-136.92472889-358.12352-306.60721778 0-104.14762667 60.86542222-195.42926222 152.14933333-250.4339911V64.51199999999994l120.55438222 72.55608889c28.05532445-5.84590222 56.15160889-9.34570667 86.59740445-9.34570667 197.75943111 0 358.0928 136.92472889 358.0928 306.60039111C870.08597333 604.0052622200001 709.75374222 740.92885333 512 740.92885333z m179.02592-280.85361778H332.93767111c-14.04472889 0-25.73539555 11.70773333-25.73539556 25.73539556 0 14.04472889 11.68952889 25.74791111 25.73653334 25.74791111h358.08711111c14.08227555 0 25.77180445-11.70432 25.77180445-25.74791111-0.00113778-14.0288-11.69066667-25.73653333-25.77066667-25.73653333z m-306.58787555-101.80835555h255.12049777c14.04586667 0 25.73425778-11.72252445 25.73425778-25.75132445 0-14.04700445-11.68725333-25.75018667-25.73425778-25.75018666H384.43804445c-14.04245333 0-25.73312 11.70318222-25.73312 25.75018666 0 14.0288 11.69180445 25.75246222 25.73312 25.75246223z m0 0"  horiz-adv-x="1024" />

    
    <glyph glyph-name="share" unicode="&#58896;" d="M837.8 194.89999999999998c0-82.2-66.8-149-149-149H329.5c-82.2 0-149 66.8-149 149V554.2c0 82.2 66.8 149 149 149h129.8v42.7H329.5c-105.7 0-191.7-86-191.7-191.7v-359.3c0-105.7 86-191.7 191.7-191.7h359.3c105.7 0 191.7 86 191.7 191.7V324.70000000000005h-42.7v-129.8zM840.1 614.4H730c-248.3 0-450.3-202-450.3-450.3h42.7c0 224.7 182.8 407.6 407.6 407.6h109.9c-1.9-3.4-4.3-6.7-7.2-9.6L714.9 443.9l30.3-30.2L863 531.9c33.7 33.9 33.7 88.9-0.1 122.7L745.1 772.3l-30.2-30.2 117.7-117.7c3.1-3 5.6-6.4 7.5-10z"  horiz-adv-x="1024" />

    
    <glyph glyph-name="arrow-white" unicode="&#59588;" d="M595.712 369.88800000000003l-205.44 197.28c-8.864 10.432-7.504 25.968 3.024 34.688 10.528 8.736 26.24 7.36 35.088-3.072l205.424-197.28c8.864-10.432 7.504-25.968-3.008-34.688S604.56 359.44000000000005 595.712 369.88800000000003zM390.256 200.32000000000005l205.44 197.28c8.864 10.432 24.56 11.808 35.088 3.088 10.528-8.736 11.872-24.272 3.024-34.688l-205.44-197.28c-8.848-10.432-24.56-11.808-35.088-3.072C382.752 174.336 381.392 189.87199999999996 390.256 200.32000000000005z"  horiz-adv-x="1024" />

    
    <glyph glyph-name="arrow-gray" unicode="&#58936;" d="M595.712 369.88800000000003l-205.44 197.28c-8.864 10.432-7.504 25.968 3.024 34.688 10.528 8.736 26.24 7.36 35.088-3.072l205.424-197.28c8.864-10.432 7.504-25.968-3.008-34.688S604.56 359.44000000000005 595.712 369.88800000000003zM390.256 200.32000000000005l205.44 197.28c8.864 10.432 24.56 11.808 35.088 3.088 10.528-8.736 11.872-24.272 3.024-34.688l-205.44-197.28c-8.848-10.432-24.56-11.808-35.088-3.072C382.752 174.336 381.392 189.87199999999996 390.256 200.32000000000005z"  horiz-adv-x="1024" />

    
    <glyph glyph-name="play-red" unicode="&#58895;" d="M897.143467 298.948267l-464.648534-311.5264c-46.976-31.488-110.592-18.944-142.08 28.023466A102.4 102.4 0 0 0 273.066667 72.47360000000003V695.5264c0 56.5504 45.8496 102.4 102.4 102.4a102.4 102.4 0 0 0 57.028266-17.348267l464.64-311.5264c46.976-31.488 59.528533-95.104 28.032-142.08a102.4 102.4 0 0 0-28.023466-28.023466z"  horiz-adv-x="1024" />

    
    <glyph glyph-name="play-black" unicode="&#59587;" d="M897.143467 298.948267l-464.648534-311.5264c-46.976-31.488-110.592-18.944-142.08 28.023466A102.4 102.4 0 0 0 273.066667 72.47360000000003V695.5264c0 56.5504 45.8496 102.4 102.4 102.4a102.4 102.4 0 0 0 57.028266-17.348267l464.64-311.5264c46.976-31.488 59.528533-95.104 28.032-142.08a102.4 102.4 0 0 0-28.023466-28.023466z"  horiz-adv-x="1024" />

    
    <glyph glyph-name="play-count" unicode="&#59252;" d="M811.52 422.4L330.24 734.72c-28.16 15.36-61.44 7.68-61.44-40.96V76.79999999999995c0-51.2 35.84-58.88 61.44-40.96l481.28 314.88c28.16 15.36 28.16 53.76 0 71.68zM320 97.27999999999997V673.28L775.68 384 320 97.27999999999997z"  horiz-adv-x="1024" />

    
    <glyph glyph-name="date" unicode="&#59586;" d="M722.5 776h-67.6V805.1c0 14.4-11.7 26.1-26.1 26.1-14.4 0-26.1-11.7-26.1-26.1V776H421.3V805.1c0 14.4-11.7 26.1-26.1 26.1s-26.1-11.7-26.1-26.1V776h-67.6c-105.5 0-191.3-85.8-191.3-191.3V128c0-105.5 85.8-191.3 191.3-191.3h420.9c105.5 0 191.3 85.8 191.3 191.3V584.7c0 105.5-85.8 191.3-191.2 191.3z m-421-52.3h67.6V682c0-14.4 11.7-26.1 26.1-26.1s26.1 11.7 26.1 26.1v41.7h181.3V682c0-14.4 11.7-26.1 26.1-26.1 14.4 0 26.1 11.7 26.1 26.1v41.7h67.6c76.7 0 139-62.4 139-139v-32.1h-699v32.1c0.1 76.7 62.5 139 139.1 139z m421-734.7h-421c-76.7 0-139 62.4-139 139V500.3h699V128c0-76.6-62.4-139-139-139zM517.2 378.6L451 351.70000000000005c-5.9-2.4-10.7-6.9-13.5-12.6-10.1-20.9 10.4-43.5 32.2-35.3l14.7 5.5c4.3 1.6 8.8-1.6 8.8-6.1v-160.3c0-14.7 11.9-26.5 26.5-26.5s26.5 11.9 26.5 26.5V359.1c0 14.9-15.2 25.1-29 19.5z"  horiz-adv-x="1024" />

    
    <glyph glyph-name="rank" unicode="&#59266;" d="M160 288c-19.2 0-32-12.8-32-32v-128c0-19.2 12.8-32 32-32h64c19.2 0 32 12.8 32 32v128c0 19.2-12.8 32-32 32h-64z m0 64h64c54.4 0 96-41.6 96-96v-128c0-54.4-41.6-96-96-96h-64c-54.4 0-96 41.6-96 96v128c0 54.4 41.6 96 96 96z m320 320c-19.2 0-32-12.8-32-32v-512c0-19.2 12.8-32 32-32h64c19.2 0 32 12.8 32 32v512c0 19.2-12.8 32-32 32h-64z m0 64h64c54.4 0 96-41.6 96-96v-512c0-54.4-41.6-96-96-96h-64c-54.4 0-96 41.6-96 96v512c0 54.4 41.6 96 96 96z m320-320c-19.2 0-32-12.8-32-32v-256c0-19.2 12.8-32 32-32h64c19.2 0 32 12.8 32 32v256c0 19.2-12.8 32-32 32h-64z m0 64h64c54.4 0 96-41.6 96-96v-256c0-54.4-41.6-96-96-96h-64c-54.4 0-96 41.6-96 96v256c0 54.4 41.6 96 96 96z"  horiz-adv-x="1024" />

    
    <glyph glyph-name="live" unicode="&#59585;" d="M725.333333 531.6800000000001l105.386667 52.458667A74.666667 74.666667 0 0 0 938.666667 517.301333v-270.186666a74.666667 74.666667 0 0 0-109.194667-66.197334L725.333333 235.22133299999996V192c0-64.8-52.533333-117.333333-117.333333-117.333333H202.666667c-64.8 0-117.333333 52.533333-117.333334 117.333333V576c0 64.8 52.533333 117.333333 117.333334 117.333333h405.333333c64.8 0 117.333333-52.533333 117.333333-117.333333v-44.32z m0-71.498667V307.41333299999997l133.738667-69.738666A10.666667 10.666667 0 0 1 874.666667 247.12533299999996V517.301333a10.666667 10.666667 0 0 1-15.424 9.546667L725.333333 460.181333zM661.333333 192V576a53.333333 53.333333 0 0 1-53.333333 53.333333H202.666667a53.333333 53.333333 0 0 1-53.333334-53.333333v-384a53.333333 53.333333 0 0 1 53.333334-53.333333h405.333333a53.333333 53.333333 0 0 1 53.333333 53.333333zM288 426.666667a64 64 0 1 0 0 128 64 64 0 0 0 0-128z"  horiz-adv-x="1024" />

    
    <glyph glyph-name="radio" unicode="&#58935;" d="M836.778667 622.250667H271.530667l96.085333 96.085333c13.312 13.312 13.312 34.986667 0 48.298667s-34.986667 13.312-48.298667 0l-166.229333-166.058667c-0.512-0.512-0.853333-1.194667-1.365333-1.706667a102.570667 102.570667 0 0 1-37.376-79.018666v-419.84c0-56.490667 45.909333-102.4 102.4-102.4h619.690666c56.490667 0 102.4 45.909333 102.4 102.4v419.84c0.341333 56.490667-45.568 102.4-102.058666 102.4z m34.133333-522.24c0-18.773333-15.36-34.133333-34.133333-34.133334H217.088c-18.773333 0-34.133333 15.36-34.133333 34.133334v419.84c0 18.773333 15.36 34.133333 34.133333 34.133333h619.690667c18.773333 0 34.133333-15.36 34.133333-34.133333v-419.84zM383.317333 457.045333c-76.458667 0-138.581333-62.122667-138.581333-138.581333 0-76.458667 62.122667-138.581333 138.581333-138.581333 76.288 0 138.581333 62.122667 138.581334 138.581333-0.170667 76.458667-62.293333 138.581333-138.581334 138.581333z m0-208.725333c-38.741333 0-70.314667 31.573333-70.314666 70.314667s31.573333 70.314667 70.314666 70.314666 70.314667-31.573333 70.314667-70.314666-31.573333-70.314667-70.314667-70.314667zM757.930667 418.133333h-136.533334c-18.773333 0-34.133333-15.36-34.133333-34.133333s15.36-34.133333 34.133333-34.133333h136.533334a34.133333 34.133333 0 1 1 0 68.266666zM757.930667 276.48h-136.533334c-18.773333 0-34.133333-15.36-34.133333-34.133333s15.36-34.133333 34.133333-34.133334h136.533334a34.133333 34.133333 0 1 1 0 68.266667z"  horiz-adv-x="1024" />

    
    <glyph glyph-name="play-list" unicode="&#58934;" d="M964.608 661.504c-46.08 52.565333-104.789333 93.696-169.642667 118.784a34.030933 34.030933 0 0 1-46.421333-31.744v-420.352a178.005333 178.005333 0 0 1-110.933333 38.741333c-98.816 0-179.2-80.384-179.2-179.2S538.794667 8.53333299999997 637.610667 8.53333299999997s179.2 80.384 179.2 179.2c0 1.877333-0.170667 3.754667-0.341334 5.632 0 1.024 0.341333 1.877333 0.341334 2.901334V694.784c36.181333-20.309333 69.12-46.933333 96.597333-78.165333 12.458667-14.165333 34.133333-15.530667 48.128-3.072 14.165333 12.288 15.530667 33.792 3.072 47.957333zM637.610667 76.79999999999995c-61.098667 0-110.933333 49.834667-110.933334 110.933333s49.834667 110.933333 110.933334 110.933334 110.933333-49.834667 110.933333-110.933334-49.834667-110.933333-110.933333-110.933333zM185.344 588.8h392.533333c18.773333 0 34.133333 15.36 34.133334 34.133333s-15.36 34.133333-34.133334 34.133334h-392.533333a34.133333 34.133333 0 1 1 0-68.266667zM424.277333 435.2h-238.933333c-18.773333 0-34.133333-15.36-34.133333-34.133333s15.36-34.133333 34.133333-34.133334h238.933333c18.773333 0 34.133333 15.36 34.133334 34.133334s-15.36 34.133333-34.133334 34.133333zM321.877333 213.33333300000004h-136.533333c-18.773333 0-34.133333-15.36-34.133333-34.133333s15.36-34.133333 34.133333-34.133333h136.533333c18.773333 0 34.133333 15.36 34.133334 34.133333s-15.36 34.133333-34.133334 34.133333z"  horiz-adv-x="1024" />

    


  </font>
</defs>
</svg>
